<svg width="129" height="129" viewBox="0 0 129 129" fill="none" xmlns="http://www.w3.org/2000/svg">
<circle cx="64.5" cy="64.5" r="64.5" fill="white"/>
<path d="M64.5 0C28.8853 0 0 28.8799 0 64.5C0 92.9983 18.4792 117.175 44.1126 125.705C47.3322 126.302 48.375 124.302 48.375 122.604V110.596C30.4332 114.498 26.6976 102.985 26.6976 102.985C23.7629 95.5299 19.5328 93.5465 19.5328 93.5465C13.6794 89.5421 19.9789 89.6281 19.9789 89.6281C26.4558 90.0796 29.8635 96.277 29.8635 96.277C35.6148 106.135 44.9511 103.286 48.633 101.636C49.2081 97.4703 50.8798 94.6215 52.7288 93.0144C38.4044 91.375 23.3436 85.8441 23.3436 61.1352C23.3436 54.0886 25.8645 48.3374 29.9871 43.8224C29.3206 42.1937 27.1115 35.6309 30.616 26.7514C30.616 26.7514 36.034 25.0206 48.3589 33.3626C53.5027 31.9329 59.0175 31.218 64.5 31.1911C69.9825 31.218 75.5026 31.9329 80.6572 33.3626C92.9714 25.0206 98.3786 26.7514 98.3786 26.7514C101.888 35.6363 99.6794 42.1991 99.0129 43.8224C103.152 48.3374 105.651 54.094 105.651 61.1352C105.651 85.9086 90.5634 91.3643 76.2014 92.9606C78.5126 94.9601 80.625 98.8839 80.625 104.904V122.604C80.625 124.318 81.657 126.334 84.9304 125.7C110.542 117.159 129 92.9875 129 64.5C129 28.8799 100.12 0 64.5 0Z" fill="#03008E"/>
</svg>
