<svg width="129" height="129" viewBox="0 0 129 129" fill="none" xmlns="http://www.w3.org/2000/svg">
<circle cx="64.5" cy="64.5" r="64.5" fill="white"/>
<path d="M64.5 0C28.8799 0 0 28.8799 0 64.5C0 100.12 28.8799 129 64.5 129C100.12 129 129 100.12 129 64.5C129 28.8799 100.12 0 64.5 0ZM53.75 86H43V53.75H53.75V86ZM48.375 48.9609C45.1124 48.9609 42.4625 46.2949 42.4625 43C42.4625 39.7105 45.107 37.0391 48.375 37.0391C51.643 37.0391 54.2875 39.7105 54.2875 43C54.2875 46.2949 51.6376 48.9609 48.375 48.9609ZM91.375 86H80.6357V70.6221C80.6357 60.5117 69.875 61.3664 69.875 70.6221V86H59.125V53.75H69.875V59.6249C74.562 50.9389 91.375 50.2939 91.375 67.9454V86Z" fill="#03008E"/>
</svg>
